<svg width="34" height="34" viewBox="0 0 34 34" fill="none" xmlns="http://www.w3.org/2000/svg">
<path d="M1 1H29.6996V29.5714H1V1Z" stroke="#15ACF8" stroke-width="1.25"/>
<path d="M33 8.14281V3.71423H5.30493V32.9999H33V26.7142" stroke="white" stroke-width="1.25"/>
<path d="M5.59192 4.42859H32.2825V32.4286H5.59192V4.42859Z" fill="black"/>
<path d="M12.2488 15.5814V11.2614L13.2388 10.2714H15.9928L16.9468 11.2254V11.8014H16.2628V11.4504L15.6868 10.8834H13.5448L12.9328 11.4864V15.3564L13.5448 15.9594H15.6508L16.2628 15.3564V13.8984H14.8408V13.2864H16.9468V15.5814L15.9568 16.5714H13.2388L12.2488 15.5814Z" fill="white"/>
<path d="M19.9527 16.8428H24.5067V17.8778H21.1767V19.4708H24.2457V20.4878H21.1767V22.1078H24.5067V23.1428H19.9527V16.8428Z" fill="#CE953F"/>
</svg>
