<svg width="32" height="32" viewBox="0 0 32 32" fill="none" xmlns="http://www.w3.org/2000/svg">
<path fill-rule="evenodd" clip-rule="evenodd" d="M7.6308 5.16919H23.6308V7.63073H10.0923V9.3538H7.6308V5.16919Z" fill="#CE953F"/>
<path fill-rule="evenodd" clip-rule="evenodd" d="M7.6308 10.5846H23.6308V13.0461H10.0923V26.5846H7.6308V10.5846Z" fill="#CE953F"/>
<path fill-rule="evenodd" clip-rule="evenodd" d="M13.7846 15.7538H23.6308V18.2153H13.7846V15.7538Z" fill="#CE953F"/>
<path fill-rule="evenodd" clip-rule="evenodd" d="M11.5692 26.5846V14.0308H14.0308V26.5846H11.5692Z" fill="#CE953F"/>
<path fill-rule="evenodd" clip-rule="evenodd" d="M16 29.5385C23.4771 29.5385 29.5385 23.4771 29.5385 16C29.5385 8.52291 23.4771 2.46154 16 2.46154C8.52291 2.46154 2.46154 8.52291 2.46154 16C2.46154 23.4771 8.52291 29.5385 16 29.5385ZM16 32C24.8366 32 32 24.8366 32 16C32 7.16344 24.8366 0 16 0C7.16344 0 0 7.16344 0 16C0 24.8366 7.16344 32 16 32Z" fill="#CE953F"/>
</svg>
