<svg xmlns="http://www.w3.org/2000/svg" xmlns:xlink="http://www.w3.org/1999/xlink" viewBox="0,0,256,256" width="30px" height="30px" fill-rule="nonzero"><g fill="#ffffff" fill-rule="nonzero" stroke="none" stroke-width="1" stroke-linecap="butt" stroke-linejoin="miter" stroke-miterlimit="10" stroke-dasharray="" stroke-dashoffset="0" font-family="none" font-weight="none" font-size="none" text-anchor="none" style="mix-blend-mode: normal"><g transform="scale(16,16)"><path d="M16,2.536c-0.583,0.259 -1.185,0.431 -1.842,0.512l-0.006,-0.011c0.678,-0.406 1.161,-1.033 1.406,-1.8c-0.634,0.376 -1.337,0.649 -2.085,0.797c-0.599,-0.638 -1.452,-1.037 -2.396,-1.037c-1.813,0 -3.283,1.47 -3.283,3.283c0,0.257 0.029,0.508 0.085,0.748c-2.728,-0.138 -5.146,-1.445 -6.766,-3.431c-0.282,0.485 -0.444,1.049 -0.444,1.651c0,1.139 0.579,2.143 1.46,2.732c-0.538,-0.018 -1.044,-0.165 -1.486,-0.411c0,0.014 0,0.027 0,0.041c0,1.591 1.131,2.917 2.633,3.219c-0.275,0.075 -0.565,0.115 -0.865,0.115c-0.211,0 -0.417,-0.021 -0.617,-0.059c0.418,1.304 1.63,2.253 3.067,2.28c-1.123,0.881 -2.539,1.405 -4.077,1.405c-0.265,0 -0.526,-0.015 -0.783,-0.046c1.452,0.932 3.177,1.476 5.031,1.476c6.038,0 9.339,-5.002 9.339,-9.34c0,-0.142 -0.003,-0.284 -0.009,-0.425c0.641,-0.463 1.198,-1.041 1.638,-1.699z"></path></g></g></svg>